
<svg xmlns="http://www.w3.org/2000/svg" width="21.333" height="21.333" viewBox="0 0 21.333 21.333"><defs><style>.a{fill:#040e45;}</style></defs><path class="a" d="M10.667,0A10.667,10.667,0,1,0,21.333,10.667,10.679,10.679,0,0,0,10.667,0ZM3.008,8.236a.356.356,0,0,1-.346.273.371.371,0,0,1-.083-.01.356.356,0,0,1-.263-.429A7.784,7.784,0,0,1,8.071,2.316a.356.356,0,1,1,.166.692A7.071,7.071,0,0,0,3.008,8.236Zm1.37.733a.355.355,0,0,1-.347-.436,6.02,6.02,0,0,1,4.5-4.5.355.355,0,1,1,.161.692,5.309,5.309,0,0,0-3.97,3.97A.355.355,0,0,1,4.378,8.969Zm2.063.18a.356.356,0,0,1-.347.279.375.375,0,0,1-.076-.008A.356.356,0,0,1,5.746,9,4.271,4.271,0,0,1,9,5.746a.355.355,0,1,1,.152.694A3.56,3.56,0,0,0,6.441,9.149Zm1.353,1.518a2.873,2.873,0,1,1,2.873,2.873A2.876,2.876,0,0,1,7.794,10.667ZM12.26,15.6a.355.355,0,0,1-.076-.7,3.559,3.559,0,0,0,2.708-2.708.355.355,0,0,1,.694.152,4.271,4.271,0,0,1-3.251,3.251A.344.344,0,0,1,12.26,15.6Zm.46,1.716a.355.355,0,0,1-.08-.7,5.309,5.309,0,0,0,3.97-3.97.355.355,0,1,1,.692.161,6.02,6.02,0,0,1-4.5,4.5A.359.359,0,0,1,12.719,17.311Zm4.233-.359a7.791,7.791,0,0,1-3.69,2.065.352.352,0,0,1-.083.01.356.356,0,0,1-.083-.7A7.069,7.069,0,0,0,18.326,13.1a.356.356,0,1,1,.692.166A7.793,7.793,0,0,1,16.952,16.952Z"/></svg>