
<svg xmlns="http://www.w3.org/2000/svg" width="21.333" height="26.006" viewBox="0 0 21.333 26.006"><defs><style>.a{fill:#040e45;}</style></defs><g transform="translate(-46)"><path class="a" d="M227.758,78.249a6.1,6.1,0,0,0,6.777,1.266l-8.043-8.044A6.1,6.1,0,0,0,227.758,78.249Z" transform="translate(-170.831 -67.841)"/><path class="a" d="M247.314,9.836a6.1,6.1,0,0,0-8.554-8.556l-.5-.5a.762.762,0,0,0-1.078,1.078l9.552,9.553a.762.762,0,0,0,1.078-1.078Z" transform="translate(-181.26 0)"/><path class="a" d="M48.265,190.589l.127-.127h0a1.022,1.022,0,0,0,1.369.059l8.454-6.987a7.641,7.641,0,0,1-3.974-3.975l-6.986,8.455a1.023,1.023,0,0,0,.059,1.369h0l-.127.127a4.063,4.063,0,0,0,5.745,5.746l6.8-6.8a1.72,1.72,0,0,1,2.432,2.432l-2.587,2.587a.762.762,0,0,0,1.078,1.078l2.587-2.587a3.244,3.244,0,1,0-4.587-4.588l-6.8,6.8a2.538,2.538,0,1,1-3.59-3.59Z" transform="translate(0 -170.439)"/></g></svg>