
<svg xmlns="http://www.w3.org/2000/svg" width="21.333" height="20" viewBox="0 0 21.333 20"><defs><style>.a{fill:#040e45;}</style></defs><g transform="translate(0 -2)"><g transform="translate(0 2)"><g transform="translate(0 0)"><path class="a" d="M17.667,2.767V2.733A1.339,1.339,0,0,0,16.5,2H4.867a1.328,1.328,0,0,0-1.2.733L0,12v9.667A.315.315,0,0,0,.333,22H21a.315.315,0,0,0,.333-.333V12ZM14.2,14.667c-.167.567-.6.667-1.2.667H8.333a1.32,1.32,0,0,1-1.267-.967L6.333,12h-4.1L5.3,4H16l3.067,8H15S14.5,13.7,14.2,14.667Z" transform="translate(0 -2)"/></g></g></g></svg>