<svg xmlns="http://www.w3.org/2000/svg" width="20" height="20" viewBox="0 0 20 20"><defs><style>.a{fill:#040e45;}</style></defs><path class="a" d="M10,0A10,10,0,1,0,20,10,10.029,10.029,0,0,0,10,0Zm5.344,16.531a15.37,15.37,0,0,1-3.531-1.062c-.531-.281-2.219-2.25-2.812-2.25a2.13,2.13,0,0,0-2.031,1.594c-.094.438.625,1.594.75,1.969a2.921,2.921,0,0,1,.125,1.375,8.539,8.539,0,0,1-5.562-4.687c1.062-.125,2.531-.531,2.438-.969-.125-.625-.312-1.281.188-1.812a2.01,2.01,0,0,1,1.406-.312,1.624,1.624,0,0,0,1-.281A22.732,22.732,0,0,0,8.969,7.875a1.554,1.554,0,0,0-.031-.656c-.094-.437-1.812-1.75-2-1.812-.156-.063-.781.656-1.062.875C5.469,6.625,3.938,6,2.906,5.406A8.491,8.491,0,0,1,10,1.563c.375,0,.75.031,1.125.063.031.219.063.438.125.75a6.613,6.613,0,0,0,2.063,2.406c.438.156,1.469-.094,1.906.094.406.187-.5,2.406-.937,2.844-.562.594.25,3.813,1,4a10.032,10.032,0,0,0,1.938,0,1.423,1.423,0,0,1,.938.469A8.641,8.641,0,0,1,15.344,16.531Z"/></svg>