<svg xmlns="http://www.w3.org/2000/svg" width="26.723" height="19.414" viewBox="0 0 26.723 19.414"><defs><style>.a{fill:#040e45;}</style></defs><g transform="translate(-270.179 -1227.388)"><path class="a" d="M25,36.858V20.569a1.666,1.666,0,0,1,2.615-1.27l10.236,8.145a1.638,1.638,0,0,1,.078,2.466L27.542,38.125A1.621,1.621,0,0,1,25,36.858Z" transform="translate(258.451 1208.388)"/><path class="a" d="M25,36.858V20.569a1.666,1.666,0,0,1,2.615-1.27l10.236,8.145a1.638,1.638,0,0,1,.078,2.466L27.542,38.125A1.621,1.621,0,0,1,25,36.858Z" transform="translate(245.179 1208.388)"/></g></svg>