<svg xmlns="http://www.w3.org/2000/svg" width="23.757" height="17.818" viewBox="0 0 23.757 17.818"><defs><style>.a{fill:#040e45;}</style></defs><g transform="translate(0 -8)"><g transform="translate(0 8)"><path class="a" d="M22.272,10.97H1.485A1.489,1.489,0,0,1,0,9.485H0A1.489,1.489,0,0,1,1.485,8H22.272a1.489,1.489,0,0,1,1.485,1.485h0A1.489,1.489,0,0,1,22.272,10.97Z" transform="translate(0 -8)"/></g><g transform="translate(0 22.848)"><path class="a" d="M22.272,50.97H1.485A1.489,1.489,0,0,1,0,49.485H0A1.489,1.489,0,0,1,1.485,48H22.272a1.489,1.489,0,0,1,1.485,1.485h0A1.489,1.489,0,0,1,22.272,50.97Z" transform="translate(0 -48)"/></g><g transform="translate(0 15.424)"><path class="a" d="M22.272,30.97H1.485A1.489,1.489,0,0,1,0,29.485H0A1.489,1.489,0,0,1,1.485,28H22.272a1.489,1.489,0,0,1,1.485,1.485h0A1.489,1.489,0,0,1,22.272,30.97Z" transform="translate(0 -28)"/></g></g></svg>