<svg xmlns="http://www.w3.org/2000/svg" width="156.23" height="36.9" viewBox="0 0 156.23 36.9"><defs><style>.a{fill:#486bfe;}</style></defs><g transform="translate(-0.02)"><path d="M127.87,24.4a11.41,11.41,0,1,1-8.088,3.342A11.44,11.44,0,0,1,127.87,24.4Zm0,15.44a4,4,0,1,0-4-4A4,4,0,0,0,127.87,39.84Z" transform="translate(-30.69 -18.25)"/><path d="M142.53,46.81V35.88c0-3.37.41-5.1,1.55-7a10.11,10.11,0,0,1,17.49,1.14c.82,1.73,1,2.82,1,5.83V46.81h-7.42V35.11c-.05-2.28-.91-3.37-2.6-3.37S150,32.83,150,35.11v11.7Z" transform="translate(-30.69 -18.25)"/><path d="M185.66,45.35a14.25,14.25,0,0,1-7.33,1.92c-7.2,0-12.62-5-12.62-11.53a11.48,11.48,0,0,1,21.23-5.92l-9.25,10a3.3,3.3,0,0,0,1,.09,9.61,9.61,0,0,0,5.24-1.82ZM177.1,31.64a4.06,4.06,0,0,0-4,4.06,3.79,3.79,0,0,0,.55,2l5.19-5.65a3.68,3.68,0,0,0-1.74-.41Z" transform="translate(-30.69 -18.25)"/><path class="a" d="M77.26,40.88,73.69,47H66.34l7.31-11.32L66.14,24.87h7.62L78,31l3.58-6.12h7.34L81.51,36l7.62,11H81.51Z" transform="translate(-30.69 -18.25)"/><path class="a" d="M42.12,24.4a11.62,11.62,0,0,0-9,4.28c-1.68,2.14-2.41,4.38-2.41,7.93V55.15h7.42V46.39a3.53,3.53,0,0,0,1.37.59h0a8.12,8.12,0,0,0,2.28.28,11.44,11.44,0,1,0,.36-22.87Zm-.18,15.7A4.13,4.13,0,1,1,46.07,36a4.13,4.13,0,0,1-4.13,4.1Z" transform="translate(-30.69 -18.25)"/><path class="a" d="M26.1,9.55V28.56h7.42V6.52Z"/><path class="a" d="M60.1,9.55V28.56h7.43V6.51Z"/><path d="M110.06,32.19h4.1V24.77h-4.1V18.25l-7.42,3V35.11c0,4.28.45,6.19,2,8.28a10,10,0,0,0,8.06,3.88,9.24,9.24,0,0,0,1.46-.09V39.84c-.55,0-.82.09-1.14.09-2,0-3-1-3-3.18V32.19Z" transform="translate(-30.69 -18.25)"/></g></svg>