<svg xmlns="http://www.w3.org/2000/svg" xmlns:xlink="http://www.w3.org/1999/xlink" width="90" height="90" viewBox="0 0 105 105"><defs><style>.a{fill:#f8f8f8;}.b{fill:#040e45;}.c{filter:url(#a);}</style><filter id="a" x="0" y="0" width="105" height="105" filterUnits="userSpaceOnUse"><feOffset dy="3" input="SourceAlpha"/><feGaussianBlur stdDeviation="7.5" result="b"/><feFlood flood-opacity="0.161"/><feComposite operator="in" in2="b"/><feComposite in="SourceGraphic"/></filter></defs><g transform="translate(-227.5 -53.5)"><g class="c" transform="matrix(1, 0, 0, 1, 227.5, 53.5)"><path class="a" d="M30,0A29.968,29.968,0,1,1,8.777,8.777,30,30,0,0,1,30,0Z" transform="translate(22.5 19.5)"/></g><path class="b" d="M25,42.038V21.024a2.149,2.149,0,0,1,3.374-1.639l13.2,10.507a2.113,2.113,0,0,1,.1,3.181l-13.4,10.6A2.091,2.091,0,0,1,25,42.038Z" transform="translate(248.179 71.469)"/></g></svg>