<svg xmlns="http://www.w3.org/2000/svg" width="21.908" height="24.931" viewBox="0 0 21.908 24.931"><defs><style>.a,.b{fill:#040e45;}.a{font-size:8px;font-family:SegoeUI-Bold, Segoe UI;font-weight:700;}.b{stroke:#040e45;}</style></defs><g transform="translate(-28.329 0.5)"><text class="a" transform="translate(36.829 15)"><tspan x="0" y="0">1</tspan></text><path class="b" d="M339.067,7.961a.7.7,0,0,1-.5-1.2l2.779-2.778L338.569,1.2a.7.7,0,0,1,1-1l3.277,3.277a.7.7,0,0,1,0,1l-3.277,3.276A.7.7,0,0,1,339.067,7.961Z" transform="translate(-293.31 0)"/><path class="b" d="M30.234,71.158a.7.7,0,0,1-.7-.7V66.212a3.7,3.7,0,0,1,3.7-3.7H49.7a.7.7,0,0,1,0,1.408H33.228a2.293,2.293,0,0,0-2.29,2.29v4.242A.7.7,0,0,1,30.234,71.158Z" transform="translate(-0.664 -59.237)"/><path class="b" d="M46.04,236.262H29.534a.7.7,0,0,1,0-1.408H46.04a2.293,2.293,0,0,0,2.291-2.29v-4.326a.7.7,0,1,1,1.408,0v4.326A3.7,3.7,0,0,1,46.04,236.262Z" transform="translate(-0.001 -215.608)"/><path class="b" d="M32.809,312.644a.7.7,0,0,1-.5-.206l-3.277-3.277a.7.7,0,0,1,0-1l3.277-3.276a.7.7,0,1,1,1,1l-2.779,2.778,2.779,2.779a.7.7,0,0,1-.5,1.2Z" transform="translate(0 -288.713)"/></g></svg>