<svg xmlns="http://www.w3.org/2000/svg" width="21.863" height="22" viewBox="0 0 21.863 22">
<defs>
<style>.a{fill:#040e45;}</style>
</defs>
<g transform="translate(0 0.2)">
<path class="a" d="M3.963,6.359H0v8.882H3.963L11.957,21.8V-.2Z"/>
<path class="a" d="M49.557,23.038l-.922-.991a11.974,11.974,0,0,0,3.86-8.745A11.753,11.753,0,0,0,48.6,4.591l.922-.991a13.042,13.042,0,0,1,4.339,9.7A13.263,13.263,0,0,1,49.557,23.038Z" transform="translate(-31.998 -2.502)"/>
<path class="a" d="M44.557,25.889l-.922-.991a7.827,7.827,0,0,0,2.494-5.671A7.6,7.6,0,0,0,43.6,13.591l.922-.991a8.894,8.894,0,0,1,2.972,6.627A9.115,9.115,0,0,1,44.557,25.889Z" transform="translate(-28.706 -8.427)"/>
<path class="a" d="M39.491,28.706l-.991-.957a3.8,3.8,0,0,0,0-5.193l.991-.957A5.183,5.183,0,0,1,39.491,28.706Z" transform="translate(-25.348 -14.353)"/>
</g>
</svg> 